<svg xmlns="http://www.w3.org/2000/svg" xmlns:xlink="http://www.w3.org/1999/xlink" width="271" zoomAndPan="magnify" viewBox="0 0 203.25 203.249996" height="271" preserveAspectRatio="xMidYMid meet" version="1.0"><defs><g/><clipPath id="4241a366f6"><path d="M 0.574219 0.375 L 202.429688 0.375 L 202.429688 202.234375 L 0.574219 202.234375 Z M 0.574219 0.375 " clip-rule="nonzero"/></clipPath><clipPath id="c424c6692e"><path d="M 101.503906 0.375 C 157.242188 0.375 202.429688 45.5625 202.429688 101.304688 C 202.429688 157.046875 157.242188 202.234375 101.503906 202.234375 C 45.761719 202.234375 0.574219 157.046875 0.574219 101.304688 C 0.574219 45.5625 45.761719 0.375 101.503906 0.375 L 101.503906 34.691406 C 64.710938 34.691406 34.890625 64.515625 34.890625 101.304688 C 34.890625 138.09375 64.710938 167.917969 101.503906 167.917969 C 138.292969 167.917969 168.117188 138.09375 168.117188 101.304688 C 168.117188 64.515625 138.292969 34.691406 101.503906 34.691406 Z M 101.503906 0.375 " clip-rule="nonzero"/></clipPath><clipPath id="c41de35858"><path d="M 101 2 L 202.503906 2 L 202.503906 128 L 101 128 Z M 101 2 " clip-rule="nonzero"/></clipPath><clipPath id="f6641c10ef"><path d="M 122.175781 2.515625 C 172.976562 13.144531 207.433594 60.570312 201.84375 112.171875 C 200.824219 121.59375 192.359375 128.402344 182.9375 127.382812 C 173.519531 126.363281 166.707031 117.898438 167.726562 108.476562 C 171.417969 74.421875 148.675781 43.121094 115.144531 36.105469 C 109.144531 34.847656 104.273438 30.488281 102.359375 24.664062 C 100.445312 18.839844 101.785156 12.4375 105.875 7.867188 C 109.960938 3.300781 116.175781 1.261719 122.175781 2.515625 Z M 122.175781 2.515625 " clip-rule="nonzero"/></clipPath></defs><g fill="#ffde59" fill-opacity="1"><g transform="translate(52.373722, 117.250303)"><g><path d="M 13.96875 0.578125 C 11.832031 0.578125 9.898438 0.1875 8.171875 -0.59375 C 6.453125 -1.375 5.070312 -2.546875 4.03125 -4.109375 C 3 -5.671875 2.453125 -7.617188 2.390625 -9.953125 L 6.453125 -9.953125 C 6.484375 -8.035156 7.15625 -6.382812 8.46875 -5 C 9.78125 -3.613281 11.613281 -2.921875 13.96875 -2.921875 C 16.332031 -2.921875 18.109375 -3.570312 19.296875 -4.875 C 20.492188 -6.1875 21.09375 -7.765625 21.09375 -9.609375 C 21.09375 -11.171875 20.71875 -12.445312 19.96875 -13.4375 C 19.21875 -14.425781 18.210938 -15.160156 16.953125 -15.640625 C 15.703125 -16.117188 14.328125 -16.359375 12.828125 -16.359375 L 10.328125 -16.359375 L 10.328125 -19.765625 L 12.828125 -19.765625 C 14.992188 -19.765625 16.691406 -20.253906 17.921875 -21.234375 C 19.148438 -22.222656 19.765625 -23.613281 19.765625 -25.40625 C 19.765625 -26.90625 19.273438 -28.140625 18.296875 -29.109375 C 17.328125 -30.085938 15.882812 -30.578125 13.96875 -30.578125 C 12.125 -30.578125 10.640625 -30.023438 9.515625 -28.921875 C 8.398438 -27.816406 7.78125 -26.4375 7.65625 -24.78125 L 3.59375 -24.78125 C 3.6875 -26.601562 4.171875 -28.210938 5.046875 -29.609375 C 5.921875 -31.015625 7.125 -32.109375 8.65625 -32.890625 C 10.1875 -33.671875 11.957031 -34.0625 13.96875 -34.0625 C 16.132812 -34.0625 17.941406 -33.675781 19.390625 -32.90625 C 20.847656 -32.144531 21.953125 -31.125 22.703125 -29.84375 C 23.453125 -28.570312 23.828125 -27.171875 23.828125 -25.640625 C 23.828125 -23.953125 23.363281 -22.414062 22.4375 -21.03125 C 21.507812 -19.644531 20.125 -18.710938 18.28125 -18.234375 C 20.257812 -17.816406 21.898438 -16.875 23.203125 -15.40625 C 24.515625 -13.9375 25.171875 -12.003906 25.171875 -9.609375 C 25.171875 -7.765625 24.742188 -6.066406 23.890625 -4.515625 C 23.046875 -2.972656 21.796875 -1.738281 20.140625 -0.8125 C 18.484375 0.113281 16.425781 0.578125 13.96875 0.578125 Z M 13.96875 0.578125 "/></g></g></g><g fill="#ffde59" fill-opacity="1"><g transform="translate(80.501409, 117.250303)"><g><path d="M 16.609375 0.578125 C 13.640625 0.578125 11.078125 -0.144531 8.921875 -1.59375 C 6.765625 -3.050781 5.113281 -5.078125 3.96875 -7.671875 C 2.820312 -10.273438 2.25 -13.300781 2.25 -16.75 C 2.25 -20.1875 2.820312 -23.203125 3.96875 -25.796875 C 5.113281 -28.398438 6.765625 -30.425781 8.921875 -31.875 C 11.078125 -33.332031 13.640625 -34.0625 16.609375 -34.0625 C 19.566406 -34.0625 22.113281 -33.332031 24.25 -31.875 C 26.394531 -30.425781 28.039062 -28.398438 29.1875 -25.796875 C 30.332031 -23.203125 30.90625 -20.1875 30.90625 -16.75 C 30.90625 -13.300781 30.332031 -10.273438 29.1875 -7.671875 C 28.039062 -5.078125 26.394531 -3.050781 24.25 -1.59375 C 22.113281 -0.144531 19.566406 0.578125 16.609375 0.578125 Z M 16.609375 -2.96875 C 18.546875 -2.96875 20.285156 -3.515625 21.828125 -4.609375 C 23.378906 -5.710938 24.59375 -7.289062 25.46875 -9.34375 C 26.351562 -11.40625 26.796875 -13.875 26.796875 -16.75 C 26.796875 -19.613281 26.351562 -22.066406 25.46875 -24.109375 C 24.59375 -26.148438 23.378906 -27.71875 21.828125 -28.8125 C 20.285156 -29.914062 18.546875 -30.46875 16.609375 -30.46875 C 14.628906 -30.46875 12.875 -29.914062 11.34375 -28.8125 C 9.8125 -27.71875 8.597656 -26.148438 7.703125 -24.109375 C 6.804688 -22.066406 6.359375 -19.613281 6.359375 -16.75 C 6.359375 -13.875 6.804688 -11.40625 7.703125 -9.34375 C 8.597656 -7.289062 9.8125 -5.710938 11.34375 -4.609375 C 12.875 -3.515625 14.628906 -2.96875 16.609375 -2.96875 Z M 16.609375 -2.96875 "/></g></g></g><g fill="#ffde59" fill-opacity="1"><g transform="translate(113.651898, 117.250303)"><g><path d="M 9.5625 -17.9375 C 8.132812 -17.9375 6.835938 -18.265625 5.671875 -18.921875 C 4.503906 -19.578125 3.582031 -20.5 2.90625 -21.6875 C 2.238281 -22.882812 1.90625 -24.316406 1.90625 -25.984375 C 1.90625 -27.640625 2.25 -29.066406 2.9375 -30.265625 C 3.625 -31.460938 4.550781 -32.382812 5.71875 -33.03125 C 6.882812 -33.6875 8.179688 -34.015625 9.609375 -34.015625 C 11.046875 -34.015625 12.335938 -33.6875 13.484375 -33.03125 C 14.640625 -32.382812 15.550781 -31.460938 16.21875 -30.265625 C 16.882812 -29.066406 17.21875 -27.640625 17.21875 -25.984375 C 17.21875 -24.316406 16.875 -22.882812 16.1875 -21.6875 C 15.507812 -20.5 14.59375 -19.578125 13.4375 -18.921875 C 12.289062 -18.265625 11 -17.9375 9.5625 -17.9375 Z M 6.609375 0 L 26.078125 -33.484375 L 30.09375 -33.484375 L 10.625 0 Z M 9.5625 -21.046875 C 10.6875 -21.046875 11.671875 -21.460938 12.515625 -22.296875 C 13.359375 -23.128906 13.78125 -24.359375 13.78125 -25.984375 C 13.78125 -27.640625 13.363281 -28.890625 12.53125 -29.734375 C 11.707031 -30.578125 10.734375 -31 9.609375 -31 C 8.492188 -31 7.5 -30.578125 6.625 -29.734375 C 5.75 -28.890625 5.3125 -27.640625 5.3125 -25.984375 C 5.3125 -24.359375 5.738281 -23.128906 6.59375 -22.296875 C 7.457031 -21.460938 8.445312 -21.046875 9.5625 -21.046875 Z M 27.46875 0.578125 C 26.03125 0.578125 24.726562 0.25 23.5625 -0.40625 C 22.394531 -1.0625 21.476562 -1.984375 20.8125 -3.171875 C 20.144531 -4.367188 19.8125 -5.800781 19.8125 -7.46875 C 19.8125 -9.125 20.148438 -10.550781 20.828125 -11.75 C 21.515625 -12.945312 22.429688 -13.867188 23.578125 -14.515625 C 24.734375 -15.171875 26.03125 -15.5 27.46875 -15.5 C 28.894531 -15.5 30.179688 -15.171875 31.328125 -14.515625 C 32.484375 -13.867188 33.394531 -12.945312 34.0625 -11.75 C 34.726562 -10.550781 35.0625 -9.125 35.0625 -7.46875 C 35.0625 -5.800781 34.726562 -4.367188 34.0625 -3.171875 C 33.394531 -1.984375 32.484375 -1.0625 31.328125 -0.40625 C 30.179688 0.25 28.894531 0.578125 27.46875 0.578125 Z M 27.421875 -2.53125 C 28.566406 -2.53125 29.5625 -2.945312 30.40625 -3.78125 C 31.25 -4.613281 31.671875 -5.84375 31.671875 -7.46875 C 31.671875 -9.125 31.253906 -10.363281 30.421875 -11.1875 C 29.597656 -12.019531 28.613281 -12.4375 27.46875 -12.4375 C 26.34375 -12.4375 25.347656 -12.019531 24.484375 -11.1875 C 23.628906 -10.363281 23.203125 -9.125 23.203125 -7.46875 C 23.203125 -5.84375 23.625 -4.613281 24.46875 -3.78125 C 25.3125 -2.945312 26.296875 -2.53125 27.421875 -2.53125 Z M 27.421875 -2.53125 "/></g></g></g><g clip-path="url(#4241a366f6)"><g clip-path="url(#c424c6692e)"><path fill="#494f56" d="M 0.574219 0.375 L 202.429688 0.375 L 202.429688 202.234375 L 0.574219 202.234375 Z M 0.574219 0.375 " fill-opacity="1" fill-rule="nonzero"/></g></g><g clip-path="url(#c41de35858)"><g clip-path="url(#f6641c10ef)"><path fill="#ffde59" d="M 0.574219 0.375 L 202.429688 0.375 L 202.429688 202.234375 L 0.574219 202.234375 Z M 0.574219 0.375 " fill-opacity="1" fill-rule="nonzero"/></g></g></svg>