<svg xmlns="http://www.w3.org/2000/svg" xmlns:xlink="http://www.w3.org/1999/xlink" width="272" zoomAndPan="magnify" viewBox="0 0 204 203.249992" height="271" preserveAspectRatio="xMidYMid meet" version="1.0"><defs><g/><clipPath id="727266599b"><path d="M 1.070312 0.375 L 202.929688 0.375 L 202.929688 202.234375 L 1.070312 202.234375 Z M 1.070312 0.375 " clip-rule="nonzero"/></clipPath><clipPath id="1fee33a60d"><path d="M 102 0.375 C 157.742188 0.375 202.929688 45.5625 202.929688 101.304688 C 202.929688 157.046875 157.742188 202.234375 102 202.234375 C 46.257812 202.234375 1.070312 157.046875 1.070312 101.304688 C 1.070312 45.5625 46.257812 0.375 102 0.375 L 102 34.691406 C 65.210938 34.691406 35.386719 64.515625 35.386719 101.304688 C 35.386719 138.09375 65.210938 167.917969 102 167.917969 C 138.789062 167.917969 168.613281 138.09375 168.613281 101.304688 C 168.613281 64.515625 138.789062 34.691406 102 34.691406 Z M 102 0.375 " clip-rule="nonzero"/></clipPath><clipPath id="c6c89bf56e"><path d="M 101 2 L 203 2 L 203 192 L 101 192 Z M 101 2 " clip-rule="nonzero"/></clipPath><clipPath id="6b8b02e5f2"><path d="M 122.671875 2.515625 C 163.6875 11.097656 195.132812 44.128906 201.6875 85.515625 C 208.242188 126.902344 188.542969 168.035156 152.1875 188.871094 C 143.964844 193.582031 133.480469 190.738281 128.769531 182.515625 C 124.058594 174.296875 126.902344 163.8125 135.125 159.097656 C 159.117188 145.347656 172.121094 118.199219 167.792969 90.882812 C 163.46875 63.570312 142.714844 41.769531 115.644531 36.105469 C 106.367188 34.164062 100.421875 25.070312 102.363281 15.796875 C 104.304688 6.519531 113.398438 0.574219 122.671875 2.515625 Z M 122.671875 2.515625 " clip-rule="nonzero"/></clipPath></defs><g fill="#ffbd59" fill-opacity="1"><g transform="translate(54.402857, 117.250301)"><g><path d="M 18.703125 0 L 18.703125 -7.171875 L 1.71875 -7.171875 L 1.71875 -10.28125 L 17.984375 -33.484375 L 22.671875 -33.484375 L 22.671875 -10.71875 L 27.65625 -10.71875 L 27.65625 -7.171875 L 22.671875 -7.171875 L 22.671875 0 Z M 6.171875 -10.71875 L 18.890625 -10.71875 L 18.890625 -29.046875 Z M 6.171875 -10.71875 "/></g></g></g><g fill="#ffbd59" fill-opacity="1"><g transform="translate(83.343758, 117.250301)"><g><path d="M 14.921875 0.578125 C 12.628906 0.578125 10.632812 0.164062 8.9375 -0.65625 C 7.25 -1.488281 5.898438 -2.628906 4.890625 -4.078125 C 3.890625 -5.535156 3.28125 -7.191406 3.0625 -9.046875 L 6.984375 -9.046875 C 7.367188 -7.191406 8.257812 -5.695312 9.65625 -4.5625 C 11.0625 -3.4375 12.832031 -2.875 14.96875 -2.875 C 16.570312 -2.875 17.945312 -3.25 19.09375 -4 C 20.238281 -4.75 21.117188 -5.757812 21.734375 -7.03125 C 22.359375 -8.3125 22.671875 -9.734375 22.671875 -11.296875 C 22.671875 -13.773438 21.96875 -15.78125 20.5625 -17.3125 C 19.164062 -18.84375 17.351562 -19.609375 15.125 -19.609375 C 13.269531 -19.609375 11.6875 -19.191406 10.375 -18.359375 C 9.070312 -17.535156 8.117188 -16.457031 7.515625 -15.125 L 3.6875 -15.125 L 6.546875 -33.484375 L 24.109375 -33.484375 L 24.109375 -30 L 9.671875 -30 L 7.703125 -19.8125 C 8.460938 -20.726562 9.519531 -21.488281 10.875 -22.09375 C 12.238281 -22.707031 13.796875 -23.015625 15.546875 -23.015625 C 17.742188 -23.015625 19.664062 -22.503906 21.3125 -21.484375 C 22.957031 -20.460938 24.238281 -19.070312 25.15625 -17.3125 C 26.082031 -15.5625 26.546875 -13.570312 26.546875 -11.34375 C 26.546875 -9.207031 26.09375 -7.226562 25.1875 -5.40625 C 24.28125 -3.582031 22.957031 -2.128906 21.21875 -1.046875 C 19.476562 0.0351562 17.378906 0.578125 14.921875 0.578125 Z M 14.921875 0.578125 "/></g></g></g><g fill="#ffbd59" fill-opacity="1"><g transform="translate(112.619515, 117.250301)"><g><path d="M 9.5625 -17.9375 C 8.132812 -17.9375 6.835938 -18.265625 5.671875 -18.921875 C 4.503906 -19.578125 3.582031 -20.5 2.90625 -21.6875 C 2.238281 -22.882812 1.90625 -24.316406 1.90625 -25.984375 C 1.90625 -27.640625 2.25 -29.066406 2.9375 -30.265625 C 3.625 -31.460938 4.550781 -32.382812 5.71875 -33.03125 C 6.882812 -33.6875 8.179688 -34.015625 9.609375 -34.015625 C 11.046875 -34.015625 12.335938 -33.6875 13.484375 -33.03125 C 14.640625 -32.382812 15.550781 -31.460938 16.21875 -30.265625 C 16.882812 -29.066406 17.21875 -27.640625 17.21875 -25.984375 C 17.21875 -24.316406 16.875 -22.882812 16.1875 -21.6875 C 15.507812 -20.5 14.59375 -19.578125 13.4375 -18.921875 C 12.289062 -18.265625 11 -17.9375 9.5625 -17.9375 Z M 6.609375 0 L 26.078125 -33.484375 L 30.09375 -33.484375 L 10.625 0 Z M 9.5625 -21.046875 C 10.6875 -21.046875 11.671875 -21.460938 12.515625 -22.296875 C 13.359375 -23.128906 13.78125 -24.359375 13.78125 -25.984375 C 13.78125 -27.640625 13.363281 -28.890625 12.53125 -29.734375 C 11.707031 -30.578125 10.734375 -31 9.609375 -31 C 8.492188 -31 7.5 -30.578125 6.625 -29.734375 C 5.75 -28.890625 5.3125 -27.640625 5.3125 -25.984375 C 5.3125 -24.359375 5.738281 -23.128906 6.59375 -22.296875 C 7.457031 -21.460938 8.445312 -21.046875 9.5625 -21.046875 Z M 27.46875 0.578125 C 26.03125 0.578125 24.726562 0.25 23.5625 -0.40625 C 22.394531 -1.0625 21.476562 -1.984375 20.8125 -3.171875 C 20.144531 -4.367188 19.8125 -5.800781 19.8125 -7.46875 C 19.8125 -9.125 20.148438 -10.550781 20.828125 -11.75 C 21.515625 -12.945312 22.429688 -13.867188 23.578125 -14.515625 C 24.734375 -15.171875 26.03125 -15.5 27.46875 -15.5 C 28.894531 -15.5 30.179688 -15.171875 31.328125 -14.515625 C 32.484375 -13.867188 33.394531 -12.945312 34.0625 -11.75 C 34.726562 -10.550781 35.0625 -9.125 35.0625 -7.46875 C 35.0625 -5.800781 34.726562 -4.367188 34.0625 -3.171875 C 33.394531 -1.984375 32.484375 -1.0625 31.328125 -0.40625 C 30.179688 0.25 28.894531 0.578125 27.46875 0.578125 Z M 27.421875 -2.53125 C 28.566406 -2.53125 29.5625 -2.945312 30.40625 -3.78125 C 31.25 -4.613281 31.671875 -5.84375 31.671875 -7.46875 C 31.671875 -9.125 31.253906 -10.363281 30.421875 -11.1875 C 29.597656 -12.019531 28.613281 -12.4375 27.46875 -12.4375 C 26.34375 -12.4375 25.347656 -12.019531 24.484375 -11.1875 C 23.628906 -10.363281 23.203125 -9.125 23.203125 -7.46875 C 23.203125 -5.84375 23.625 -4.613281 24.46875 -3.78125 C 25.3125 -2.945312 26.296875 -2.53125 27.421875 -2.53125 Z M 27.421875 -2.53125 "/></g></g></g><g clip-path="url(#727266599b)"><g clip-path="url(#1fee33a60d)"><path fill="#494f56" d="M 1.070312 0.375 L 202.929688 0.375 L 202.929688 202.234375 L 1.070312 202.234375 Z M 1.070312 0.375 " fill-opacity="1" fill-rule="nonzero"/></g></g><g clip-path="url(#c6c89bf56e)"><g clip-path="url(#6b8b02e5f2)"><path fill="#ffbd59" d="M 1.070312 0.375 L 202.929688 0.375 L 202.929688 202.234375 L 1.070312 202.234375 Z M 1.070312 0.375 " fill-opacity="1" fill-rule="nonzero"/></g></g></svg>